<?xml version="1.0" encoding="utf-8"?>
<!-- Generator: Adobe Illustrator 18.1.1, SVG Export Plug-In . SVG Version: 6.00 Build 0)  -->
<svg version="1.1" id="Layer_1" xmlns="http://www.w3.org/2000/svg" xmlns:xlink="http://www.w3.org/1999/xlink" x="0px" y="0px"
	 viewBox="0 0 574.4 718" enable-background="new 0 0 574.4 718" xml:space="preserve">
<g>
	<g>
		<path d="M34.8,347.7c124.4-7.4,249.1-9.5,373.7-5.8c5.9,0.2,5.9-9.1,0-9.3c-124.6-3.5-249.3-1.7-373.7,5.8
			C28.8,338.8,28.8,348.1,34.8,347.7L34.8,347.7z"/>
	</g>
</g>
<g>
	<g>
		<path d="M214.3,336.6c2-23.2,7.2-46.8,1.7-68.9c-6.5-26-4.1-50.9-1.7-77.2c4.5-51.6,3.5-103.4,2.6-155c-0.2-5.9-9.5-5.9-9.3,0
			c0.9,51.6,1.9,103.6-2.6,155c-2,24.1-5,47.7,0.2,71.7c5.2,24.1,2,49.2-0.2,74.4c-0.6,6.1,21.7,4.1,22.3-1.9L214.3,336.6z"/>
	</g>
</g>
<g>
	<g>
		<path d="M208.9,34.6c94.3-1.9,188.6-0.6,282.9,3.7c5.9,0.2,5.9-9.1,0-9.3c-94.3-4.3-188.6-5.6-282.9-3.7
			C202.9,25.5,202.9,34.7,208.9,34.6L208.9,34.6z"/>
	</g>
</g>
<g>
	<g>
		<path d="M216.3,97.7c14.1-5,22.5-16.9,32.7-26.9c13-12.8,27.8-23.4,44-31.7c5.4-2.8,0.6-10.8-4.6-8c-14.1,7.2-27.1,16.1-39,26.7
			c-11.3,10-21,25.8-35.5,31.2C208.3,90.6,210.7,99.7,216.3,97.7L216.3,97.7z"/>
	</g>
</g>
<g>
	<g>
		<path d="M482.1,34.2c2.4,16.9,5.4,33.8,8.5,50.5c1.1,5.9,10,3.3,8.9-2.4c-3.3-16.7-6.1-33.6-8.5-50.5
			C490.3,25.8,481.4,28.4,482.1,34.2L482.1,34.2z"/>
	</g>
</g>
<g>
	<g>
		<path d="M492.9,82.4c-13.4,1.1-32.9,8.4-28.4,25.8c3.9,15.6,26,25.1,40.5,24.9c14.8-0.2,26.4-15.2,26.5-29.5
			c0.2-16.5-26-22.8-38.6-23.4c-5.9-0.4-5.9,8.9,0,9.3c8,0.4,19.1,2.4,25.1,8.4c9.1,9.3-2,25.8-13,26c-9.5,0.2-20.4-4.6-27.1-11.3
			c-12.4-12.1,4.5-19.9,15-20.8C498.8,91.2,498.8,81.9,492.9,82.4L492.9,82.4z"/>
	</g>
</g>
<g>
	<g>
		<path d="M492.9,132.9c5.2,19.3,8,39.2,8,59.2c0,5.9,9.3,5.9,9.3,0c0-21-2.8-41.4-8.4-61.6C500.3,124.8,491.2,127.2,492.9,132.9
			L492.9,132.9z"/>
	</g>
</g>
<g>
	<g>
		<path d="M500.7,191c-11.1,12.1-21.9,24.3-32.3,37.1c-3.7,4.6,2.8,11.1,6.5,6.5c10.4-12.6,21.2-25.1,32.3-37.1
			C511.3,193.1,504.8,186.6,500.7,191L500.7,191z"/>
	</g>
</g>
<g>
	<g>
		<path d="M503.8,194.2c12.6,9.5,24.3,20,34.9,31.7c4.1,4.5,10.6-2.2,6.5-6.5c-11.3-12.3-23.6-23.2-36.8-33.2
			C503.6,182.7,499,190.7,503.8,194.2L503.8,194.2z"/>
	</g>
</g>
<g>
	<g>
		<path d="M495.5,152.1c-11,0-21.9,0-32.9,0c-5.9,0-5.9,9.3,0,9.3c11,0,21.9,0,32.9,0C501.4,161.3,501.4,152.1,495.5,152.1
			L495.5,152.1z"/>
	</g>
</g>
<g>
	<g>
		<path d="M500.5,162.6c15,2.8,30.1,3.3,45.3,1.3c5.8-0.7,5.9-10,0-9.3c-14.3,1.9-28.6,1.7-42.9-1.1
			C497.1,152.6,494.7,161.5,500.5,162.6L500.5,162.6z"/>
	</g>
</g>
</svg>
